HIERARCHY
ROOT ui
{
	 OFFSET 0 0 0
	 CHANNELS 3 XPosition YPosition Z Position
	 EndSite
	 {
	 OFFSET 0 -1 0
	 }
}
ROOT li
{
	 OFFSET 0 0 0
	 CHANNELS 3 XPosition YPosition Z Position
	 EndSite
	 {
	 OFFSET 0 -1 0
	 }
}
ROOT ul
{
	 OFFSET 0 0 0
	 CHANNELS 3 XPosition YPosition Z Position
	 EndSite
	 {
	 OFFSET 0 -1 0
	 }
}
ROOT ll
{
	 OFFSET 0 0 0
	 CHANNELS 3 XPosition YPosition Z Position
	 EndSite
	 {
	 OFFSET 0 -1 0
	 }
}
ROOT tt
{
	 OFFSET 0 0 0
	 CHANNELS 3 XPosition YPosition Z Position
	 EndSite
	 {
	 OFFSET 0 -1 0
	 }
}
ROOT tb
{
	 OFFSET 0 0 0
	 CHANNELS 3 XPosition YPosition Z Position
	 EndSite
	 {
	 OFFSET 0 -1 0
	 }
}
ROOT td
{
	 OFFSET 0 0 0
	 CHANNELS 3 XPosition YPosition Z Position
	 EndSite
	 {
	 OFFSET 0 -1 0
	 }
}
ROOT v
{
	 OFFSET 0 0 0
	 CHANNELS 3 XPosition YPosition Z Position
	 EndSite
	 {
	 OFFSET 0 -1 0
	 }
}
ROOT bn
{
	 OFFSET 0 0 0
	 CHANNELS 3 XPosition YPosition Z Position
	 EndSite
	 {
	 OFFSET 0 -1 0
	 }
}
MOTION
Frames: 21
Frame Time: 0.002
8.138179779052735E-4	-0.0010013619661331176	0		0.48878472900390624	-2.38081005859375	0		-0.9801695556640625	-0.03734223937988281	0		-0.740877197265625	-2.256876220703125	0		1.3624044189453124	-0.65183154296875	0		3.1155419921875	-0.14165313720703124	0		4.57014794921875	-0.03327447509765625	0		5.54648291015625	0.1621996612548828	0		-0.09257331848144532	5.96228955078125	0		
0.0037855210304260254	0.0014335939884185791	0		0.46617620849609376	-2.372768310546875	0		-1.052218505859375	-0.035464046478271484	0		-0.7386328735351563	-2.2555166015625	0		1.3854564208984375	-0.6496383666992187	0		3.136109130859375	-0.1591857147216797	0		4.56593701171875	-0.03909690475463867	0		5.54637109375	0.16241909790039064	0		-0.12187263488769531	5.94136669921875	0		
0.01891042137145996	0.010617051124572754	0		0.4835235595703125	-2.36756591796875	0		-0.980330078125	-0.038600475311279296	0		-0.7384218139648437	-2.256114501953125	0		1.3854603271484376	-0.64996240234375	0		3.13019677734375	-0.15216075134277343	0		4.5658623046875	-0.03901091003417969	0		5.541458984375	0.17173359680175782	0		-0.12271846008300781	5.94084814453125	0		
0.0036373920440673827	4.3606600165367127E-4	0		0.4894624938964844	-2.3821220703125	0		-0.980393310546875	-0.03921955108642578	0		-0.672427001953125	-2.268066162109375	0		1.422342041015625	-0.6570478515625	0		3.117109375	-0.153993408203125	0		4.576796875	-0.0391597900390625	0		5.551015625	0.15473176574707032	0		-0.12353388977050782	5.9403369140625	0		
-0.009273614883422852	0.007220386028289795	0		0.4896926574707031	-2.382544921875	0		-0.984527587890625	-0.04373686599731445	0		-0.7420724487304687	-2.261191162109375	0		1.382413330078125	-0.654535888671875	0		3.08709716796875	-0.15248207092285157	0		4.574703125	-0.04104719543457031	0		5.54194091796875	0.1551055908203125	0		-0.24155184936523438	5.92924853515625	0		
-0.006263095855712891	0.009694689750671387	0		0.46298297119140625	-2.37939990234375	0		-0.9804910278320312	-0.04039484024047851	0		-0.706931640625	-2.265453857421875	0		1.3824388427734375	-0.65484033203125	0		3.135932373046875	-0.1595920867919922	0		4.574658203125	-0.040986263275146484	0		5.55603466796875	0.16298927307128908	0		-0.09465625	5.95774560546875	0		
0.0034878029823303225	-9.46677029132843E-4	0		0.47815167236328127	-2.38209423828125	0		-1.0453531494140624	-0.031618810653686526	0		-0.7355422973632812	-2.256380859375	0		1.4169710693359374	-0.6798384399414062	0		3.10438134765625	-0.13604913330078125	0		4.5739052734375	-0.026917776107788085	0		5.5459765625	0.1633489227294922	0		-0.12473831939697265	5.93789013671875	0		
0.0065317611694335935	0.002578742027282715	0		0.4934297180175781	-2.3787646484375	0		-0.9805617065429687	-0.04145008850097656	0		-0.704502685546875	-2.264493408203125	0		1.385575439453125	-0.6514690551757812	0		3.107851318359375	-0.16122998046875	0		4.5766279296875	-0.038935070037841794	0		5.5507607421875	0.15538688659667968	0		-0.11212441253662109	5.94919873046875	0		
-0.006376107215881347	0.00845440673828125	0		0.454763671875	-2.371321044921875	0		-0.980589111328125	-0.04192486953735351	0		-0.7413004150390625	-2.26319775390625	0		1.3825234375	-0.6556675415039063	0		3.09593798828125	-0.15609242248535157	0		4.5656025390625	-0.038683170318603514	0		5.54171728515625	0.15568701171875	0		-0.12691505432128905	5.93808740234375	0		
0.0033934550285339357	-0.0021018319129943847	0		0.49068267822265627	-2.38436083984375	0		-0.984692138671875	-0.046281108856201174	0		-0.7082492065429687	-2.269276611328125	0		1.382550048828125	-0.6559114379882812	0		3.125897705078125	-0.1577978820800781	0		4.56557861328125	-0.038666446685791014	0		5.54167724609375	0.1557836456298828	0		-0.25986322021484376	5.91737353515625	0		
0.00336939001083374	-0.0024298670291900636	0		0.46389700317382815	-2.3811142578125	0		-1.0525994873046876	-0.04032215881347656	0		-0.7410020141601562	-2.26399755859375	0		1.382573486328125	-0.6561392822265625	0		3.104309326171875	-0.13646343994140625	0		4.57451513671875	-0.04084274673461914	0		5.54580126953125	0.16377621459960937	0		-0.11366647338867188	5.94810009765625	0		
-0.006451971054077148	0.007467966079711914	0		0.4940595397949219	-2.37998291015625	0		-0.9806539306640625	-0.043123779296875	0		-0.7368018798828125	-2.2604248046875	0		1.365675537109375	-0.6520130004882813	0		3.129970947265625	-0.1530807647705078	0		4.5696552734375	-0.032753406524658205	0		5.545767578125	0.1638292694091797	0		-0.11310772705078125	5.9457734375	0		
0.0033239181041717527	-0.0030007410049438478	0		0.4682324523925781	-2.3767109375	0		-0.9806744995117187	-0.0434493408203125	0		-0.740779052734375	-2.26465673828125	0		1.4256368408203124	-0.655401611328125	0		3.125116455078125	-0.1450821228027344	0		4.56963427734375	-0.032773284912109374	0		5.54157763671875	0.15594422912597655	0		-0.1286340789794922	5.9367958984375	0		
-0.006500020027160645	0.0069515352249145505	0		0.5171117553710938	-2.38790283203125	0		-0.9806968383789062	-0.0437396125793457	0		-0.7406970825195313	-2.264935791015625	0		1.3656947021484376	-0.6523894653320312	0		3.12100048828125	-0.15009928894042968	0		4.5654931640625	-0.03872241973876953	0		5.5367451171875	0.16605741882324218	0		-0.12893721008300782	5.93654541015625	0		
-0.006526768207550049	0.006732874870300293	0		0.4814035034179687	-2.376390625	0		-0.9847999877929687	-0.04791645050048828	0		-0.6728065795898438	-2.27452734375	0		1.4225638427734375	-0.6596813354492187	0		3.09410400390625	-0.143662353515625	0		4.56958642578125	-0.03284248352050781	0		5.54151318359375	0.15595872497558594	0		-0.11402083587646485	5.9450234375	0		
1.8635599315166472E-4	-0.006598124980926514	0		0.5001104431152343	-2.393942626953125	0		-0.9807485961914062	-0.044222366333007815	0		-0.7405918579101562	-2.265401611328125	0		1.36568603515625	-0.652706298828125	0		3.13885400390625	-0.15564674377441406	0		4.578517578125	-0.03507070922851562	0		5.54977490234375	0.17077760314941406	0		-0.24468576049804688	5.9233984375	0		
0.015252814292907715	-0.002069746971130371	0		0.47050048828125	-2.3755166015625	0		-1.0456064453125	-0.03513967514038086	0		-0.7015538940429688	-2.265364013671875	0		1.3917857666015625	-0.6473618774414063	0		3.1041904296875	-0.13705754089355468	0		4.5695302734375	-0.032956378936767575	0		5.54560400390625	0.16381871032714843	0		-0.11441143035888672	5.9446474609375	0		
-0.006615085124969482	0.006205650806427002	0		0.49440994262695315	-2.381137451171875	0		-0.98080615234375	-0.044595634460449216	0		-0.7385162353515625	-2.263804443359375	0		1.3687325439453124	-0.6490401000976562	0		3.089928955078125	-0.14888053894042969	0		4.5695009765625	-0.03303144454956055	0		5.54557080078125	0.16376116943359376	0		-0.12972265625	5.93578564453125	0		
0.0031549649238586425	-0.004131824970245362	0		0.491310546875	-2.386213623046875	0		-0.9808364868164062	-0.044750049591064454	0		-0.67272900390625	-2.27525439453125	0		1.425580322265625	-0.6562874755859375	0		3.08989990234375	-0.14898460388183593	0		4.56535302734375	-0.039037227630615234	0		5.537244140625	0.1488480224609375	0		-0.1298269500732422	5.93564208984375	0		
6.370999664068222E-5	-0.007202268123626709	0		0.4814750671386719	-2.377144775390625	0		-1.0569132080078125	-0.04639002227783203	0		-0.7426324462890626	-2.26901171875	0		1.3656036376953125	-0.6532254028320312	0		3.12568408203125	-0.15879872131347655	0		4.56943798828125	-0.03321276092529297	0		5.54550390625	0.16359931945800782	0		-0.11569070434570312	5.94623291015625	0		
-0.006714541912078858	0.005812788009643554	0		0.4643326110839844	-2.382927490234375	0		-1.0528707275390625	-0.04259344482421875	0		-0.7056676025390625	-2.26986328125	0		1.3655701904296875	-0.6533410034179687	0		3.119044189453125	-0.1387744140625	0		4.56940234375	-0.03331752014160156	0		5.5454677734375	0.1634978790283203	0		-0.11478614044189453	5.9440927734375	0		
